Coordinates
version=1
nRows=9
nColumns=36
inDegrees=yes

Units are S.I. units (second, meters, Newtons, ...)
If the header above contains a line with 'inDegrees', this indicates whether rotational values are in degrees (yes) or radians (no).

endheader
time	pelvis_tilt	pelvis_list	pelvis_rotation	pelvis_tx	pelvis_ty	pelvis_tz	hip_flexion_r	hip_adduction_r	hip_rotation_r	knee_angle_r	knee_angle_r_beta	ankle_angle_r	subtalar_angle_r	mtp_angle_r	hip_flexion_l	hip_adduction_l	hip_rotation_l	knee_angle_l	knee_angle_l_beta	ankle_angle_l	subtalar_angle_l	mtp_angle_l	lumbar_extension	lumbar_bending	lumbar_rotation	arm_flex_r	arm_add_r	arm_rot_r	elbow_flex_r	pro_sup_r	arm_flex_l	arm_add_l	arm_rot_l	elbow_flex_l	pro_sup_l
      1.33333330	    -19.61064807	      2.81089675	      0.76854407	     -0.72721009	      1.28342323	     -0.05146512	     20.07930351	     -0.44654971	      6.73127165	     39.29661104	      0.68585525	     15.06234523	    -27.29752076	     -7.49999978	     20.82686677	      2.43089005	      4.00427632	     41.35957407	      0.72186074	     18.38177318	    -12.66769685	     -7.49999978	     -5.10154716	     -1.84250331	      2.59266607	     65.34836849	    -36.09685877	     35.42016946	     62.01142308	     89.53161533	     72.04722152	    -26.96504760	     10.49086132	     82.01013089	     91.13510882
      1.35000000	    -19.09711800	      2.88309725	      0.97649257	     -0.69475190	      1.29312809	     -0.03904961	     16.16747050	     -1.06185901	      4.94947931	     35.04176044	      0.61159410	      9.99907611	    -25.68352922	     -7.49999979	     17.55308783	      1.75661393	      2.35661482	     38.14875290	      0.66582134	     13.25959075	    -11.38826856	     -7.49999979	     -2.22383000	     -1.64840856	      3.45430867	     67.43927601	    -38.51050640	     38.11211664	     61.30127492	     89.09263680	     75.04605213	    -29.47959721	     13.18790395	     80.55986066	     91.57757422
      1.36666670	    -18.62902768	      3.43778515	      1.21253136	     -0.67006579	      1.32988389	     -0.04190918	     12.09620867	     -2.09062737	      3.58867692	     29.54093654	      0.51558661	      4.24498907	    -23.85613259	     -7.49999979	     15.54733808	      1.84069450	      1.55968823	     35.40739520	      0.61797563	      5.93343902	    -11.38574256	     -7.49999979	     -0.47975475	     -1.87292396	      3.20740500	     67.69544641	    -40.09688434	     38.63606771	     62.04720631	     89.12583484	     74.83127987	    -33.33952532	     14.05444090	     80.80654005	     92.12555113
      1.38333330	    -17.93234924	      4.48063750	      0.67976858	     -0.63856703	      1.34665621	     -0.04741534	      8.35359341	     -3.82523174	      2.13170497	     24.93316178	      0.43516577	     -2.11144027	    -20.77871067	     -7.49999981	     14.16971430	      2.91601361	      0.98596824	     33.69602236	      0.58810654	     -4.24607661	    -13.61905288	     -7.49999981	      1.07059428	     -1.90461358	      0.58428077	     71.59231167	    -38.29482230	     44.86463179	     58.21023423	     85.36838797	     74.52081620	    -43.04881179	     17.69683785	     84.61072750	     90.28595913
      1.40000000	    -18.07422446	      5.37008133	      0.56662341	     -0.59556716	      1.36802211	     -0.03657046	      5.29804941	     -4.79045592	      1.07645653	     21.02552442	      0.36696463	    -10.76250981	    -18.04909502	     -7.49999983	     12.71748890	      3.48802846	     -0.38598600	     31.39472245	      0.54794127	    -14.41819722	    -15.73438710	     -7.49999983	      3.35255634	     -2.20274862	     -2.22887278	     70.72436974	    -36.38107437	     44.60926754	     54.69861319	     85.44003637	     71.21387089	    -52.44291813	     18.39682107	     89.69292001	     87.78182471
      1.41666670	    -17.32086270	      5.22560113	     -0.16498347	     -0.58229117	      1.39488854	     -0.03584533	      4.09513728	     -4.76088901	      0.37920309	     19.38885798	      0.33839941	    -17.86803947	    -16.75966894	     -7.49999983	     13.68388798	      3.53996032	     -1.37087265	     32.49879463	      0.56721097	    -21.19459099	    -17.21552341	     -7.49999983	      3.06268982	     -1.91601117	     -1.08676204	     70.41915020	    -38.98669679	     44.38911018	     52.96321219	     84.21141237	     71.94837378	    -54.59568295	     19.39901785	     91.37577016	     86.62181606
      1.43333330	    -16.10659249	      5.72874900	     -0.18875943	     -0.56895313	      1.41636533	     -0.03780800	      4.22168240	     -5.32716712	      0.48186179	     19.48153498	      0.34001693	    -27.66503595	    -15.83089108	     -7.49999983	     15.96188028	      4.14036911	     -1.99286022	     35.25269983	      0.61527568	    -28.63116439	    -20.40464637	     -7.49999983	      1.22268238	     -2.53417909	     -1.63266492	     69.76462046	    -40.35768421	     43.29786132	     50.70554598	     84.41458931	     73.01525225	    -58.41951241	     19.83972049	     91.12417597	     87.20047749
      1.45000000	    -15.41668046	      6.34263175	      0.41730190	     -0.54297255	      1.43568087	     -0.03076611	      5.03500315	     -5.39819524	      0.50636075	     20.74507809	      0.36206992	    -35.16028367	    -15.88424005	     -7.49999983	     18.68089410	      4.90761730	     -3.35014095	     38.30790252	      0.66859903	    -31.11343172	    -19.93391887	     -7.49999983	     -0.73489159	     -3.86845042	     -3.37979248	     67.08430925	    -39.81823265	     36.94198873	     47.52799176	     83.47594197	     73.45340700	    -65.17653019	     21.01415052	     93.93886998	     86.95551184
      1.46666670	    -14.06820986	      6.49484445	      0.62535246	     -0.51759966	      1.45703143	     -0.03246319	      5.78784674	     -5.55142972	     -1.02119491	     22.71611043	      0.39647092	    -38.65421353	    -14.42223389	     -7.49999983	     20.97980968	      5.48199993	     -4.19468540	     42.49020131	      0.74159391	    -30.69054356	    -19.37057018	     -7.49999983	     -2.97698989	     -4.20382918	     -3.05935780	     65.29993605	    -40.55393591	     31.48996642	     42.41063684	     83.13321170	     72.90816913	    -68.78713497	     20.81481011	     94.91779386	     86.00318634
